<?xml version="1.0" encoding="UTF-8"?>
<svg width="357px" height="55px" viewBox="0 0 357 55" version="1.1" xmlns="http://www.w3.org/2000/svg" xmlns:xlink="http://www.w3.org/1999/xlink">
    <!-- Generator: Sketch 52.6 (67491) - http://www.bohemiancoding.com/sketch -->
    <title>Lesley Chard</title>
    <desc>Created with Sketch.</desc>
    <g id="Symbols" stroke="none" stroke-width="1" fill="none" fill-rule="evenodd">
        <g id="Logo" transform="translate(0.000000, 1.000000)">
            <g id="Lesley-Chard" transform="translate(0.000000, -16.000000)">
                <rect id="Rectangle" fill="#0C0C0C" x="0.680000203" y="15.8480007" width="355.576015" height="42.1840018"></rect>
                <path d="M33.0471213,58 L6.7005922,58 L6.7005922,16.8553102 L14.7090086,16.8553102 L14.7090086,50.3397757 L33.0471213,50.3397757 L33.0471213,58 Z M44.3053298,40.4743352 L57.0723704,40.4743352 C56.9563064,37.6307671 55.0992823,34.845231 50.6888501,34.845231 C46.6846419,34.845231 44.4794258,37.8628951 44.3053298,40.4743352 Z M57.8267864,47.9024316 L64.2683387,49.8174876 C62.8175386,54.7502079 58.2910424,58.87048 51.2691701,58.87048 C43.4348498,58.87048 36.5290415,53.2413758 36.5290415,43.6080634 C36.5290415,34.497039 43.2607538,28.5777747 50.5727861,28.5777747 C59.3936505,28.5777747 64.6745627,34.206879 64.6745627,43.3759354 C64.6745627,44.4785434 64.5584987,45.6391835 64.5584987,45.7552475 L44.1312338,45.7552475 C44.3053298,49.5273276 47.49709,52.2548318 51.3272021,52.2548318 C54.9251863,52.2548318 56.8982744,50.4558397 57.8267864,47.9024316 Z M68.3305789,50.0496157 L74.9462272,48.5988156 C75.1203232,50.8620637 76.8032512,52.9512158 80.1691074,52.9512158 C82.7225155,52.9512158 83.9411876,51.6164797 83.9411876,50.1076477 C83.9411876,48.8309436 83.0707075,47.7863676 80.8654914,47.3221115 L77.0934113,46.4516315 C71.580371,45.2329594 69.0849949,41.9251353 69.0849949,37.9209271 C69.0849949,32.8141109 73.6114911,28.5777747 79.7628834,28.5777747 C87.8873637,28.5777747 90.6148678,33.7426229 90.9630599,36.8183191 L84.5215076,38.2691191 C84.2893796,36.5861911 83.0707075,34.439007 79.8209154,34.439007 C77.7897953,34.439007 76.1648992,35.657679 76.1648992,37.2825751 C76.1648992,38.6753432 77.2094753,39.5458232 78.7763393,39.8359832 L82.8385795,40.7064632 C88.4676838,41.8671033 91.3112519,45.2909914 91.3112519,49.4692956 C91.3112519,54.1118558 87.7132677,58.87048 80.2271394,58.87048 C71.638403,58.87048 68.6787709,53.2994078 68.3305789,50.0496157 Z M105.238932,58 L97.5206761,58 L97.5206761,15.9848302 L105.238932,15.9848302 L105.238932,58 Z M119.108581,40.4743352 L131.875622,40.4743352 C131.759558,37.6307671 129.902534,34.845231 125.492101,34.845231 C121.487893,34.845231 119.282677,37.8628951 119.108581,40.4743352 Z M132.630038,47.9024316 L139.07159,49.8174876 C137.62079,54.7502079 133.094294,58.87048 126.072421,58.87048 C118.238101,58.87048 111.332293,53.2413758 111.332293,43.6080634 C111.332293,34.497039 118.064005,28.5777747 125.376037,28.5777747 C134.196902,28.5777747 139.477814,34.206879 139.477814,43.3759354 C139.477814,44.4785434 139.36175,45.6391835 139.36175,45.7552475 L118.934485,45.7552475 C119.108581,49.5273276 122.300341,52.2548318 126.130453,52.2548318 C129.728438,52.2548318 131.701526,50.4558397 132.630038,47.9024316 Z M155.030391,69.2582085 L146.847878,69.2582085 L153.579591,54.4020158 L141.450902,29.4482548 L150.09767,29.4482548 L157.699863,46.1614715 L164.721735,29.4482548 L172.962279,29.4482548 L155.030391,69.2582085 Z M211.205369,58.87048 C199.715033,58.87048 190.139752,50.5719037 190.139752,37.4566711 C190.139752,24.3414385 200.063225,15.9848302 211.089305,15.9848302 C222.463578,15.9848302 228.32481,22.9486705 229.949706,29.6223508 L222.405546,32.0016629 C221.419002,28.0554867 218.227241,23.7030865 211.089305,23.7030865 C204.937913,23.7030865 198.438329,28.1135187 198.438329,37.4566711 C198.438329,46.2195035 204.589721,51.0361597 211.205369,51.0361597 C218.227241,51.0361597 221.65113,46.4516315 222.753738,42.6215193 L230.239866,44.8847674 C228.673002,51.2102557 222.753738,58.87048 211.205369,58.87048 Z M243.471162,41.2287513 L243.471162,58 L235.752906,58 L235.752906,15.9848302 L243.471162,15.9848302 L243.471162,31.8275669 C245.328187,29.6223508 248.461915,28.6938387 251.189419,28.6938387 C258.443419,28.6938387 261.809275,33.7426229 261.809275,40.0100792 L261.809275,58 L254.091019,58 L254.091019,41.3448153 C254.091019,38.1530551 252.524155,35.657679 248.810107,35.657679 C245.560315,35.657679 243.645258,38.0950231 243.471162,41.2287513 Z M267.902636,50.2237117 C267.902636,45.1168954 271.674716,42.2733273 276.43334,41.5769433 L283.455212,40.5323672 C285.080108,40.3002392 285.602396,39.4877912 285.602396,38.5012472 C285.602396,36.4701271 284.035532,34.787199 280.78574,34.787199 C277.419884,34.787199 275.56286,36.9343831 275.330732,39.4297592 L268.482956,37.9789591 C268.947212,33.5104949 273.067484,28.5777747 280.727708,28.5777747 C289.7807,28.5777747 293.146557,33.6845909 293.146557,39.4297592 L293.146557,53.4735038 C293.146557,54.9823359 293.320653,57.013456 293.494749,58 L286.414844,58 C286.240748,57.245584 286.124684,55.6787199 286.124684,54.5761119 C284.673884,56.8393599 281.94638,58.812448 277.710044,58.812448 C271.616684,58.812448 267.902636,54.6921759 267.902636,50.2237117 Z M279.33494,53.0672798 C282.584732,53.0672798 285.602396,51.5004157 285.602396,46.4516315 L285.602396,45.1749274 L279.160844,46.1614715 C277.187756,46.4516315 275.620892,47.5542395 275.620892,49.7594556 C275.620892,51.4423837 276.839564,53.0672798 279.33494,53.0672798 Z M318.332446,29.3321908 L318.332446,37.1084791 C317.461966,36.9343831 316.70755,36.8763511 316.011166,36.8763511 C312.064989,36.8763511 308.641101,38.7914072 308.641101,44.9427994 L308.641101,58 L300.922845,58 L300.922845,29.4482548 L308.408973,29.4482548 L308.408973,33.6845909 C310.149933,29.9125108 314.09611,29.2161267 316.533454,29.2161267 C317.171806,29.2161267 317.752126,29.2741588 318.332446,29.3321908 Z M350.714303,15.9848302 L350.714303,52.8351518 C350.714303,54.7502079 350.830367,56.8393599 350.946431,58 L343.576367,58 C343.460303,57.41968 343.286207,56.0269119 343.286207,54.6921759 C342.009503,56.955424 339.107903,58.696384 335.27779,58.696384 C327.15331,58.696384 321.35011,52.3128638 321.35011,43.6660954 C321.35011,35.309487 326.979214,28.7518707 335.045662,28.7518707 C339.978383,28.7518707 342.299663,30.7829908 343.112111,32.2918229 L343.112111,15.9848302 L350.714303,15.9848302 Z M329.126398,43.6660954 C329.126398,48.7729116 332.144062,51.7905757 336.206303,51.7905757 C340.152479,51.7905757 343.228175,48.7729116 343.228175,43.6080634 C343.228175,38.5012472 340.152479,35.657679 336.206303,35.657679 C332.260126,35.657679 329.126398,38.5592792 329.126398,43.6660954 Z" fill="#FFFFFF"></path>
            </g>
        </g>
    </g>
</svg>